#!OML:ASF H:\SpeedWalk\Project 1\Capture day 2\Session 1\male.ASF
:FULLY-SPECIFIED
:DEGREES
195
root -7.805824 21.886165 -4.729742 1.642384 -0.619562 4.675183
lowerback 11.083702 0.738850 -5.608846 
upperback -1.093329 0.267370 0.597573 
thorax -7.434063 0.372837 3.756140 
lowerneck -14.026597 0.453193 1.624520 
upperneck 12.127872 0.650457 -2.460580 
head 5.987655 0.195640 -0.986410 
rclavicle 0.000000 0.000000 
rhumerus -28.823005 -11.894702 -82.484528 
rradius 34.568707 
rwrist -3.941238 
rhand -12.789971 -10.119112 
rfingers 0.000000 
rthumb 13.295659 -39.675013 
lclavicle 0.000000 0.000000 
lhumerus -38.588647 0.198810 87.676371 
lradius 44.987063 
lwrist -8.290753 
lhand -8.756830 15.611844 
lfingers 0.000000 
lthumb 17.180500 44.872324 
rfemur -45.600248 -11.809387 16.383216 
rtibia 85.371059 
rfoot -13.527105 -6.341574 
rtoes 1.148285 
lfemur -7.833010 -6.271516 -30.927784 
ltibia 32.004247 
lfoot -22.249452 8.561408 
ltoes 4.479752 
196
root -7.807250 21.885609 -4.598022 1.563856 -0.582915 4.826727
lowerback 10.967816 0.644221 -5.752866 
upperback -1.114225 0.127252 0.580136 
thorax -7.376221 0.308744 3.843074 
lowerneck -13.949861 0.435765 1.668783 
upperneck 12.169782 0.622828 -2.482834 
head 5.987604 0.182891 -1.003327 
rclavicle 0.000000 0.000000 
rhumerus -28.918673 -12.007169 -82.353989 
rradius 34.489916 
rwrist -3.918146 
rhand -12.807183 -10.007772 
rfingers 0.000000 
rthumb 13.279056 -39.564761 
lclavicle 0.000000 0.000000 
lhumerus -38.611489 0.175457 87.652283 
lradius 44.819558 
lwrist -8.368763 
lhand -8.693836 15.543535 
lfingers 0.000000 
lthumb 17.241136 44.798681 
rfemur -46.198284 -11.673999 16.418862 
rtibia 84.031845 
rfoot -13.862623 -6.392304 
rtoes 1.047051 
lfemur -6.832905 -6.278845 -31.163381 
ltibia 31.216299 
lfoot -22.320795 8.628429 
ltoes 4.381914 
197
root -7.808841 21.883004 -4.464845 1.479976 -0.554266 4.981845
lowerback 10.851860 0.554341 -5.900549 
upperback -1.130447 -0.006616 0.561427 
thorax -7.313411 0.247438 3.929134 
lowerneck -13.877931 0.413407 1.716561 
upperneck 12.213027 0.589676 -2.517304 
head 5.988678 0.166632 -1.025208 
rclavicle 0.000000 0.000000 
rhumerus -29.015421 -12.137575 -82.209475 
rradius 34.396720 
rwrist -3.884157 
rhand -12.814361 -9.894412 
rfingers 0.000000 
rthumb 13.272120 -39.451841 
lclavicle 0.000000 0.000000 
lhumerus -38.627095 0.163760 87.626859 
lradius 44.640484 
lwrist -8.454261 
lhand -8.629104 15.499903 
lfingers 0.000000 
lthumb 17.303438 44.749581 
rfemur -46.712955 -11.516277 16.439489 
rtibia 82.560864 
rfoot -14.162959 -6.470450 
rtoes 0.890942 
lfemur -5.821304 -6.271096 -31.402492 
ltibia 30.424692 
lfoot -22.394702 8.692227 
ltoes 4.278268 
198
root -7.810582 21.878162 -4.330410 1.389510 -0.533988 5.139885
lowerback 10.738517 0.469555 -6.050792 
upperback -1.141723 -0.133698 0.542450 
thorax -7.246950 0.189183 4.014718 
lowerneck -13.826164 0.392725 1.754258 
upperneck 12.274320 0.559880 -2.544718 
head 5.998867 0.151919 -1.042983 
rclavicle 0.000000 0.000000 
rhumerus -29.116562 -12.276464 -82.052462 
rradius 34.298934 
rwrist -3.850037 
rhand -12.823029 -9.792265 
rfingers 0.000000 
rthumb 13.263777 -39.350209 
lclavicle 0.000000 0.000000 
lhumerus -38.634488 0.163968 87.602586 
lradius 44.452417 
lwrist -8.544908 
lhand -8.560591 15.486876 
lfingers 0.000000 
lthumb 17.369386 44.730775 
rfemur -47.141975 -11.339264 16.444653 
rtibia 80.962766 
rfoot -14.408256 -6.576721 
rtoes 0.714903 
lfemur -4.799114 -6.247197 -31.644097 
ltibia 29.632208 
lfoot -22.471847 8.752296 
ltoes 4.164675 
199
root -7.812433 21.871069 -4.195337 1.293546 -0.518617 5.301463
lowerback 10.629865 0.388455 -6.203031 
upperback -1.150451 -0.255993 0.523341 
thorax -7.180453 0.133142 4.100048 
lowerneck -13.804802 0.382927 1.767155 
upperneck 12.370500 0.545386 -2.540978 
head 6.025417 0.145657 -1.045574 
rclavicle 0.000000 0.000000 
rhumerus -29.225483 -12.414439 -81.885698 
rradius 34.202529 
rwrist -3.824155 
rhand -12.840924 -9.716558 
rfingers 0.000000 
rthumb 13.246559 -39.275645 
lclavicle 0.000000 0.000000 
lhumerus -38.637080 0.182177 87.578952 
lradius 44.257554 
lwrist -8.642863 
lhand -8.489909 15.504840 
lfingers 0.000000 
lthumb 17.437408 44.742702 
rfemur -47.484985 -11.152000 16.432838 
rtibia 79.249000 
rfoot -14.580373 -6.709684 
rtoes 0.559346 
lfemur -3.772529 -6.209825 -31.888147 
ltibia 28.843724 
lfoot -22.551881 8.806329 
ltoes 4.037809 
200
root -7.814315 21.861786 -4.059939 1.192611 -0.508807 5.462132
lowerback 10.522719 0.309434 -6.353640 
upperback -1.155011 -0.374869 0.504501 
thorax -7.110204 0.078349 4.183720 
lowerneck -13.789915 0.376007 1.781796 
upperneck 12.471414 0.535235 -2.542626 
head 6.054711 0.141113 -1.049798 
rclavicle 0.000000 0.000000 
rhumerus -29.333398 -12.556027 -81.712445 
rradius 34.095707 
rwrist -3.796505 
rhand -12.869475 -9.672181 
rfingers 0.000000 
rthumb 13.219052 -39.233011 
lclavicle 0.000000 0.000000 
lhumerus -38.634499 0.223285 87.551155 
lradius 44.057330 
lwrist -8.747747 
lhand -8.418222 15.551187 
lfingers 0.000000 
lthumb 17.506411 44.782971 
rfemur -47.739860 -10.958034 16.407183 
rtibia 77.433032 
rfoot -14.662000 -6.858821 
rtoes 0.448844 
lfemur -2.745729 -6.158671 -32.129588 
ltibia 28.064036 
lfoot -22.636025 8.853793 
ltoes 3.896086 
201
root -7.816200 21.850258 -3.924048 1.084366 -0.509609 5.620804
lowerback 10.416670 0.235126 -6.501144 
upperback -1.156095 -0.486667 0.485278 
thorax -7.037223 0.026558 4.263633 
lowerneck -13.775288 0.369103 1.798179 
upperneck 12.575117 0.525353 -2.547992 
head 6.084972 0.136486 -1.055494 
rclavicle 0.000000 0.000000 
rhumerus -29.447133 -12.707052 -81.531402 
rradius 33.980762 
rwrist -3.764188 
rhand -12.908288 -9.652332 
rfingers 0.000000 
rthumb 13.181650 -39.215590 
lclavicle 0.000000 0.000000 
lhumerus -38.633176 0.281426 87.519878 
lradius 43.855685 
lwrist -8.857481 
lhand -8.348708 15.604714 
lfingers 0.000000 
lthumb 17.573240 44.830567 
rfemur -47.906665 -10.756161 16.368658 
rtibia 75.524124 
rfoot -14.629785 -7.015970 
rtoes 0.414249 
lfemur -1.716021 -6.086807 -32.366856 
ltibia 27.293632 
lfoot -22.726296 8.892591 
ltoes 3.742814 
202
root -7.818345 21.836671 -3.787391 0.974477 -0.508046 5.778622
lowerback 10.307247 0.160308 -6.647481 
upperback -1.155068 -0.598261 0.466272 
thorax -6.959581 -0.025543 4.342589 
lowerneck -13.760921 0.363250 1.812731 
upperneck 12.681558 0.517347 -2.553625 
head 6.116174 0.132658 -1.060825 
rclavicle 0.000000 0.000000 
rhumerus -29.561968 -12.878357 -81.339867 
rradius 33.851079 
rwrist -3.716123 
rhand -12.948753 -9.665272 
rfingers 0.000000 
rthumb 13.142641 -39.231089 
lclavicle 0.000000 0.000000 
lhumerus -38.637142 0.359350 87.484591 
lradius 43.656361 
lwrist -8.972033 
lhand -8.288975 15.650341 
lfingers 0.000000 
lthumb 17.630743 44.870985 
rfemur -47.994657 -10.559640 16.317891 
rtibia 73.527956 
rfoot -14.464775 -7.168227 
rtoes 0.481129 
lfemur -0.692436 -5.997894 -32.597263 
ltibia 26.543225 
lfoot -22.830437 8.914077 
ltoes 3.581022 
203
root -7.820911 21.820927 -3.649020 0.862857 -0.506404 5.936392
lowerback 10.193024 0.087285 -6.795730 
upperback -1.154823 -0.706947 0.447392 
thorax -6.879872 -0.076356 4.421795 
lowerneck -13.733721 0.355882 1.825005 
upperneck 12.781362 0.507881 -2.559753 
head 6.143074 0.128079 -1.066045 
rclavicle 0.000000 0.000000 
rhumerus -29.685838 -13.073155 -81.132359 
rradius 33.707586 
rwrist -3.656844 
rhand -12.981190 -9.691680 
rfingers 0.000000 
rthumb 13.111323 -39.259475 
lclavicle 0.000000 0.000000 
lhumerus -38.651990 0.446645 87.447846 
lradius 43.459721 
lwrist -9.088486 
lhand -8.239538 15.673916 
lfingers 0.000000 
lthumb 17.678388 44.890361 
rfemur -48.014271 -10.363945 16.254941 
rtibia 71.473045 
rfoot -14.156199 -7.304288 
rtoes 0.627422 
lfemur 0.270971 -5.887853 -32.820025 
ltibia 25.932715 
lfoot -23.013174 8.936187 
ltoes 3.416319 
204
root -7.824021 21.803009 -3.508382 0.751428 -0.502401 6.093330
lowerback 10.070054 0.014857 -6.945850 
upperback -1.155653 -0.813883 0.430015 
thorax -6.796084 -0.126507 4.502782 
lowerneck -13.689210 0.346806 1.827957 
upperneck 12.870667 0.497330 -2.561262 
head 6.163651 0.123033 -1.068308 
rclavicle 0.000000 0.000000 
rhumerus -29.819465 -13.286562 -80.906788 
rradius 33.549347 
rwrist -3.590908 
rhand -13.006746 -9.727761 
rfingers 0.000000 
rthumb 13.086616 -39.297196 
lclavicle 0.000000 0.000000 
lhumerus -38.677546 0.542513 87.411540 
lradius 43.264420 
lwrist -9.204921 
lhand -8.199422 15.661845 
lfingers 0.000000 
lthumb 17.716958 44.874707 
rfemur -47.959953 -10.170248 16.178933 
rtibia 69.325682 
rfoot -13.631689 -7.405757 
rtoes 0.839573 
lfemur 1.234284 -5.751699 -33.031451 
ltibia 25.337100 
lfoot -23.214699 8.930717 
ltoes 3.268735 
205
root -7.828829 21.759817 -3.367266 0.635402 -0.498626 6.250336
lowerback 9.946216 -0.055168 -7.097264 
upperback -1.154572 -0.917150 0.412934 
thorax -6.709762 -0.175124 4.583757 
lowerneck -13.641120 0.338753 1.819559 
upperneck 12.957752 0.488851 -2.552394 
head 6.182949 0.119298 -1.065209 
rclavicle 0.000000 0.000000 
rhumerus -29.962117 -13.515239 -80.667191 
rradius 33.386195 
rwrist -3.524428 
rhand -13.025394 -9.778464 
rfingers 0.000000 
rthumb 13.068727 -39.349038 
lclavicle 0.000000 0.000000 
lhumerus -38.709631 0.642195 87.376715 
lradius 43.074345 
lwrist -9.319086 
lhand -8.167491 15.647323 
lfingers 0.000000 
lthumb 17.747647 44.857408 
rfemur -47.954885 -9.970587 16.095604 
rtibia 67.208027 
rfoot -12.841591 -7.475357 
rtoes 1.093961 
lfemur 2.177886 -5.593440 -33.240921 
ltibia 24.800252 
lfoot -23.447708 8.915095 
ltoes 3.122269 
206
root -7.833114 21.734579 -3.224873 0.520573 -0.491959 6.402607
lowerback 9.819240 -0.124516 -7.247117 
upperback -1.154046 -1.018486 0.397868 
thorax -6.622031 -0.223023 4.665187 
lowerneck -13.585683 0.332947 1.804027 
upperneck 13.039100 0.483828 -2.537069 
head 6.199233 0.117465 -1.058522 
rclavicle 0.000000 0.000000 
rhumerus -30.119412 -13.740767 -80.418229 
rradius 33.228050 
rwrist -3.470393 
rhand -13.041019 -9.843048 
rfingers 0.000000 
rthumb 13.053686 -39.414596 
lclavicle 0.000000 0.000000 
lhumerus -38.747761 0.740139 87.345072 
lradius 42.891987 
lwrist -9.426809 
lhand -8.136384 15.645547 
lfingers 0.000000 
lthumb 17.777565 44.852907 
rfemur -47.779783 -9.781639 15.993473 
rtibia 64.969380 
rfoot -11.822571 -7.485150 
rtoes 1.366031 
lfemur 3.121527 -5.423650 -33.431541 
ltibia 24.260902 
lfoot -23.677470 8.878734 
ltoes 2.974500 
207
root -7.837620 21.709207 -3.081346 0.400729 -0.488187 6.554508
lowerback 9.687374 -0.191804 -7.396638 
upperback -1.151244 -1.116057 0.382750 
thorax -6.529138 -0.269537 4.745228 
lowerneck -13.524727 0.329080 1.784390 
upperneck 13.119514 0.482178 -2.521038 
head 6.214317 0.117147 -1.050617 
rclavicle 0.000000 0.000000 
rhumerus -30.292832 -13.958194 -80.162031 
rradius 33.078463 
rwrist -3.432383 
rhand -13.056293 -9.908536 
rfingers 0.000000 
rthumb 13.038896 -39.481033 
lclavicle 0.000000 0.000000 
lhumerus -38.794715 0.833909 87.315893 
lradius 42.720531 
lwrist -9.522867 
lhand -8.107368 15.655857 
lfingers 0.000000 
lthumb 17.805494 44.860732 
rfemur -47.530807 -9.591261 15.871864 
rtibia 62.696879 
rfoot -10.552195 -7.449676 
rtoes 1.654635 
lfemur 4.054404 -5.242498 -33.616629 
ltibia 23.755935 
lfoot -23.917398 8.840438 
ltoes 2.814673 
